<svg width="66" height="65" viewBox="0 0 66 65" fill="none" xmlns="http://www.w3.org/2000/svg">
<path d="M5.5 65.0001C3.97222 65.0001 2.67422 64.4647 1.606 63.3941C0.535333 62.3258 0 61.0278 0 59.5001V52.5334L14.6667 39.5167V65.0001H5.5ZM18.3333 65.0001V50.3334H47.6667V65.0001H18.3333ZM51.3333 65.0001V34.9334L35.6583 21L46.75 11.1917L64.1667 26.6834C64.7778 27.2334 65.2361 27.8592 65.5417 28.5607C65.8472 29.2647 66 30.0139 66 30.8084V59.5001C66 61.0278 65.4647 62.3258 64.394 63.3941C63.3258 64.4647 62.0278 65.0001 60.5 65.0001H51.3333ZM0 47.5834V30.8084C0 30.0139 0.152778 29.25 0.458333 28.5167C0.763889 27.7834 1.22222 27.1723 1.83333 26.6834L29.3333 2.30005C29.8222 1.81116 30.3881 1.45916 31.031 1.24405C31.6714 1.03138 32.3278 0.925049 33 0.925049C33.6722 0.925049 34.3298 1.03138 34.9727 1.24405C35.6131 1.45916 36.1778 1.81116 36.6667 2.30005L44 8.80838L0 47.5834Z" fill="#BA0913"/>
</svg>
