<svg width="160" height="57" viewBox="0 0 160 57" fill="none" xmlns="http://www.w3.org/2000/svg">
<path d="M15.732 28.608C12.92 28.608 10.3867 28.0253 8.132 26.86C5.87733 25.6693 4.104 24.0227 2.812 21.92C1.54533 19.792 0.912003 17.3853 0.912003 14.7C0.912003 12.0147 1.54533 9.62069 2.812 7.51799C4.104 5.38999 5.87733 3.74329 8.132 2.57799C10.3867 1.38729 12.92 0.791992 15.732 0.791992C18.316 0.791992 20.6213 1.24799 22.648 2.15999C24.6747 3.07199 26.3467 4.38929 27.664 6.11199L22.002 11.166C20.3553 9.08869 18.4173 8.04999 16.188 8.04999C14.3133 8.04999 12.806 8.65799 11.666 9.87399C10.526 11.0647 9.956 12.6733 9.956 14.7C9.956 16.7267 10.526 18.348 11.666 19.564C12.806 20.7547 14.3133 21.35 16.188 21.35C18.4173 21.35 20.3553 20.3113 22.002 18.234L27.664 23.288C26.3467 25.0107 24.6747 26.328 22.648 27.24C20.6213 28.152 18.316 28.608 15.732 28.608ZM52.4896 21.236V28H30.3736V1.39999H51.9956V8.16399H39.1896V11.28H50.4376V17.74H39.1896V21.236H52.4896ZM79.8775 28L79.8015 15.878L74.0255 25.606H70.0735L64.2975 16.296V28H56.1275V1.39999H63.4995L72.1635 15.574L80.5995 1.39999H87.9715L88.0475 28H79.8775ZM92.7173 1.39999H101.533V28H92.7173V1.39999ZM124.844 14.32L132.71 28H122.602L117.51 18.386H115.002V28H106.034V1.39999H115.002V11.318H117.738L123.4 1.39999H132.748L124.844 14.32ZM147.73 28.608C144.918 28.608 142.385 28.0253 140.13 26.86C137.875 25.6693 136.102 24.0227 134.81 21.92C133.543 19.792 132.91 17.3853 132.91 14.7C132.91 12.0147 133.543 9.62069 134.81 7.51799C136.102 5.38999 137.875 3.74329 140.13 2.57799C142.385 1.38729 144.918 0.791992 147.73 0.791992C150.314 0.791992 152.619 1.24799 154.646 2.15999C156.673 3.07199 158.345 4.38929 159.662 6.11199L154 11.166C152.353 9.08869 150.415 8.04999 148.186 8.04999C146.311 8.04999 144.804 8.65799 143.664 9.87399C142.524 11.0647 141.954 12.6733 141.954 14.7C141.954 16.7267 142.524 18.348 143.664 19.564C144.804 20.7547 146.311 21.35 148.186 21.35C150.415 21.35 152.353 20.3113 154 18.234L159.662 23.288C158.345 25.0107 156.673 26.328 154.646 27.24C152.619 28.152 150.314 28.608 147.73 28.608Z" fill="#FE1212"/>
<path d="M29.86 35H48.07V40.34H36.82V42.77H41.83C44.39 42.77 46.35 43.32 47.71 44.42C49.09 45.5 49.78 47.07 49.78 49.13C49.78 51.27 49 52.95 47.44 54.17C45.88 55.39 43.71 56 40.93 56H29.86V35ZM40.45 51.05C41.15 51.05 41.69 50.9 42.07 50.6C42.47 50.3 42.67 49.87 42.67 49.31C42.67 48.23 41.93 47.69 40.45 47.69H36.82V51.05H40.45ZM74.4735 50.66V56H57.0135V35H74.0835V40.34H63.9735V42.8H72.8535V47.9H63.9735V50.66H74.4735ZM100.026 40.49H93.8755V56H86.9155V40.49H80.7655V35H100.026V40.49ZM117.547 56.48C115.287 56.48 113.257 56.01 111.457 55.07C109.657 54.13 108.247 52.83 107.227 51.17C106.207 49.49 105.697 47.6 105.697 45.5C105.697 43.4 106.207 41.52 107.227 39.86C108.247 38.18 109.657 36.87 111.457 35.93C113.257 34.99 115.287 34.52 117.547 34.52C119.807 34.52 121.837 34.99 123.637 35.93C125.437 36.87 126.847 38.18 127.867 39.86C128.887 41.52 129.397 43.4 129.397 45.5C129.397 47.6 128.887 49.49 127.867 51.17C126.847 52.83 125.437 54.13 123.637 55.07C121.837 56.01 119.807 56.48 117.547 56.48ZM117.547 50.75C118.427 50.75 119.217 50.54 119.917 50.12C120.637 49.68 121.207 49.07 121.627 48.29C122.047 47.49 122.257 46.56 122.257 45.5C122.257 44.44 122.047 43.52 121.627 42.74C121.207 41.94 120.637 41.33 119.917 40.91C119.217 40.47 118.427 40.25 117.547 40.25C116.667 40.25 115.867 40.47 115.147 40.91C114.447 41.33 113.887 41.94 113.467 42.74C113.047 43.52 112.837 44.44 112.837 45.5C112.837 46.56 113.047 47.49 113.467 48.29C113.887 49.07 114.447 49.68 115.147 50.12C115.867 50.54 116.667 50.75 117.547 50.75ZM157.446 35V56H150.366V48.26H143.826V56H136.746V35H143.826V42.44H150.366V35H157.446Z" fill="#fff"/>
</svg>
