<?xml version="1.0" standalone="no"?>
<!DOCTYPE svg PUBLIC "-//W3C//DTD SVG 20010904//EN"
 "http://www.w3.org/TR/2001/REC-SVG-20010904/DTD/svg10.dtd">
<svg version="1.0" xmlns="http://www.w3.org/2000/svg"
 width="528.000000pt" height="528.000000pt" viewBox="0 0 528.000000 528.000000"
 preserveAspectRatio="xMidYMid meet">
<metadata>
Created by potrace 1.14, written by Peter Selinger 2001-2017
</metadata>
<g transform="translate(0.000000,528.000000) scale(0.100000,-0.100000)"
fill="#000000" stroke="none">
<path d="M2577 5164 c-1 -2 -15 -5 -30 -8 -70 -13 -150 -51 -197 -96 -33 -30
-118 -107 -179 -160 -35 -30 -73 -64 -85 -75 -12 -11 -57 -51 -101 -90 -44
-38 -82 -72 -85 -75 -5 -5 -147 -131 -209 -185 -19 -16 -46 -41 -60 -54 -14
-12 -57 -51 -96 -85 -38 -33 -82 -73 -97 -87 -15 -15 -44 -40 -65 -57 -21 -17
-59 -50 -84 -74 -26 -23 -68 -62 -95 -85 -27 -23 -66 -57 -86 -75 -20 -18 -65
-58 -99 -88 -34 -30 -77 -68 -95 -85 -17 -16 -45 -41 -60 -54 -30 -25 -185
-162 -194 -171 -3 -3 -41 -36 -85 -75 -97 -85 -87 -76 -176 -157 -41 -36 -85
-76 -99 -88 -180 -154 -222 -197 -250 -256 -50 -108 -49 -92 -50 -841 0 -387
1 -703 3 -703 5 0 23 15 117 100 38 34 80 71 92 82 47 40 299 260 324 283 17
16 182 162 235 208 92 81 166 146 194 172 18 17 54 48 80 70 27 22 60 51 75
65 48 44 169 151 250 220 35 30 79 70 97 87 19 18 46 42 61 54 15 11 45 37 67
57 22 20 76 68 120 107 44 38 85 74 91 80 17 15 144 128 168 148 12 10 35 30
51 45 17 15 61 54 99 87 39 33 82 71 96 85 15 14 56 50 91 80 35 30 86 75 114
100 28 25 82 72 119 105 38 33 81 71 96 85 16 14 52 46 82 72 29 25 70 61 90
80 31 29 99 88 172 151 67 58 142 124 156 137 9 8 70 62 135 120 66 58 134
117 150 132 17 14 45 39 63 55 l33 29 -51 44 c-29 25 -64 56 -79 70 -45 40
-172 153 -195 173 -30 26 -157 139 -176 157 -37 35 -137 117 -161 132 -43 27
-139 51 -212 53 -37 1 -69 0 -70 -1z"/>
<path d="M3705 4313 c-16 -14 -51 -44 -76 -67 -95 -85 -185 -165 -217 -192
-19 -16 -46 -40 -62 -54 -15 -14 -43 -38 -61 -55 -130 -114 -195 -172 -209
-185 -9 -8 -45 -40 -80 -70 -35 -30 -82 -72 -104 -93 l-41 -38 35 -32 c20 -18
67 -60 105 -94 39 -34 86 -76 105 -93 19 -17 59 -53 88 -78 30 -26 69 -61 88
-78 19 -17 59 -53 90 -80 31 -27 68 -60 83 -74 15 -14 57 -51 92 -82 35 -31
80 -71 99 -88 19 -17 59 -53 89 -78 29 -26 63 -56 75 -67 11 -11 43 -40 71
-64 27 -24 82 -72 120 -107 39 -34 79 -71 91 -81 l21 -18 -1 -1200 0 -1200
400 -2 c426 -2 439 -1 542 49 53 25 141 110 175 169 59 101 57 54 57 1369 0
1306 2 1254 -55 1359 -31 55 -69 98 -165 182 -34 30 -80 70 -101 89 -21 19
-63 58 -95 85 -31 28 -69 61 -84 75 -15 14 -56 50 -90 80 -35 30 -71 62 -80
70 -9 8 -50 44 -90 80 -40 36 -88 79 -105 95 -18 17 -58 53 -91 80 -32 28 -75
66 -95 85 -20 19 -59 54 -85 77 -27 22 -58 49 -69 60 -11 10 -41 36 -66 58
-24 22 -78 70 -119 107 -121 107 -145 128 -150 128 -3 -1 -18 -12 -35 -27z"/>
<path d="M1142 2050 c-102 -89 -168 -148 -193 -171 -15 -14 -54 -48 -85 -75
-31 -27 -66 -58 -78 -69 -12 -11 -58 -51 -101 -90 -43 -38 -86 -77 -95 -85 -9
-8 -50 -44 -91 -80 -41 -36 -79 -69 -85 -75 -6 -5 -41 -37 -79 -70 -37 -33
-73 -65 -79 -71 -6 -5 -36 -32 -66 -59 -30 -26 -86 -75 -123 -108 l-68 -60 1
-318 c2 -313 4 -339 37 -419 43 -101 153 -200 262 -236 63 -21 83 -22 469 -23
221 -1 402 2 403 6 0 5 1 464 2 1021 1 556 2 1012 2 1012 0 0 -15 -14 -33 -30z"/>
<path d="M1468 1190 c-2 -14 -3 -277 -2 -585 l0 -560 1172 -3 c645 -1 1172 1
1173 5 0 5 2 266 2 581 1 358 -2 576 -8 580 -5 3 -532 6 -1171 6 l-1162 1 -4
-25z"/>
</g>
</svg>
