<?xml version="1.0" standalone="no"?>
<!DOCTYPE svg PUBLIC "-//W3C//DTD SVG 20010904//EN"
 "http://www.w3.org/TR/2001/REC-SVG-20010904/DTD/svg10.dtd">
<svg version="1.0" xmlns="http://www.w3.org/2000/svg"
 width="2016.000000pt" height="2016.000000pt" viewBox="0 0 2016.000000 2016.000000"
 preserveAspectRatio="xMidYMid meet">
<metadata>
Created by potrace 1.14, written by Peter Selinger 2001-2017
</metadata>
<g transform="translate(0.000000,2016.000000) scale(0.100000,-0.100000)"
fill="#000000" stroke="none">
<path d="M9892 14284 c-17 -19 -28 -34 -25 -34 2 0 -3 -7 -12 -17 -9 -9 -35
-41 -57 -71 -23 -31 -47 -63 -54 -71 -16 -19 -237 -304 -267 -345 -12 -16 -30
-37 -39 -47 -10 -11 -18 -23 -18 -29 0 -5 -4 -10 -8 -10 -4 0 -15 -12 -24 -28
-9 -15 -27 -39 -40 -53 -13 -15 -39 -48 -58 -73 -19 -26 -40 -52 -45 -59 -6
-7 -42 -52 -80 -102 -38 -49 -74 -93 -80 -97 -5 -4 -6 -8 -1 -8 5 0 -2 -10
-15 -23 -13 -13 -28 -30 -34 -39 -5 -9 -37 -50 -70 -93 -33 -42 -68 -88 -77
-102 -9 -14 -20 -29 -25 -32 -4 -3 -22 -24 -38 -45 -17 -22 -56 -74 -87 -115
-32 -42 -63 -83 -70 -91 -7 -8 -68 -86 -136 -175 -133 -173 -162 -210 -204
-260 -16 -18 -28 -36 -28 -40 0 -3 -7 -13 -15 -21 -14 -14 -164 -207 -298
-383 -31 -42 -63 -83 -70 -91 -6 -8 -43 -56 -82 -105 -38 -50 -72 -92 -75 -95
-3 -3 -32 -41 -65 -85 -33 -44 -65 -87 -72 -95 -16 -19 -130 -167 -163 -210
-14 -18 -33 -42 -42 -53 -10 -11 -18 -23 -18 -26 0 -3 -15 -23 -33 -43 -17
-20 -45 -55 -61 -77 -17 -23 -32 -41 -36 -41 -5 0 -167 223 -195 268 -5 9 -15
22 -22 29 -7 8 -20 27 -30 43 -9 17 -21 30 -25 30 -4 0 -8 5 -8 11 0 6 -10 24
-22 39 -13 15 -29 36 -35 46 -31 47 -98 140 -110 152 -7 7 -13 17 -13 21 0 4
-8 16 -18 27 -28 33 -62 83 -62 93 0 5 -4 11 -8 13 -7 2 -205 275 -284 391
-47 69 -139 195 -151 209 -9 9 -23 30 -31 47 -9 16 -21 35 -28 43 -8 7 -56 74
-108 148 -51 74 -97 137 -100 140 -3 3 -39 54 -80 114 -41 60 -83 117 -92 127
-10 11 -18 23 -18 27 0 5 -9 17 -20 27 -11 10 -20 24 -20 32 0 7 -3 13 -7 13
-11 0 -59 72 -56 82 2 4 -1 8 -5 8 -5 0 -26 25 -47 55 -20 30 -40 55 -44 55
-11 0 -36 -20 -26 -20 6 0 3 -6 -5 -13 -9 -7 -58 -68 -110 -137 -52 -69 -134
-177 -183 -240 -48 -63 -96 -125 -105 -138 -9 -13 -24 -32 -32 -42 -8 -10 -23
-29 -32 -42 -10 -13 -88 -116 -175 -229 -87 -113 -169 -221 -183 -239 -14 -18
-72 -94 -129 -169 -58 -75 -161 -210 -230 -301 -68 -91 -127 -167 -130 -170
-3 -3 -33 -41 -66 -85 -33 -44 -66 -86 -72 -93 -7 -7 -13 -16 -13 -20 0 -4
-18 -27 -40 -52 -22 -24 -40 -47 -40 -51 0 -4 -16 -24 -35 -45 -19 -22 -35
-42 -35 -46 0 -5 -8 -16 -17 -26 -10 -11 -27 -32 -38 -47 -11 -16 -24 -33 -30
-39 -5 -6 -44 -56 -85 -111 -41 -55 -77 -102 -81 -105 -3 -3 -58 -75 -122
-160 -65 -85 -137 -181 -162 -212 -24 -31 -79 -103 -122 -160 -42 -57 -81
-104 -85 -106 -4 -2 -8 -10 -8 -18 0 -8 -4 -14 -8 -14 -5 0 -24 -21 -43 -47
-40 -58 -49 -69 -71 -94 -10 -10 -18 -21 -18 -24 0 -9 -81 -110 -91 -113 -5
-2 -9 -10 -9 -18 0 -8 -3 -14 -8 -14 -4 0 -18 -18 -32 -40 -14 -22 -28 -40
-32 -40 -4 0 -14 -13 -23 -29 -8 -16 -21 -35 -28 -43 -8 -8 -52 -63 -97 -123
-46 -61 -93 -122 -104 -136 -12 -14 -30 -38 -41 -53 -11 -15 -47 -63 -80 -105
-33 -43 -69 -90 -80 -106 -11 -15 -24 -32 -30 -39 -5 -6 -30 -38 -55 -71 -25
-33 -48 -62 -51 -65 -3 -3 -32 -41 -64 -85 -32 -44 -61 -82 -64 -85 -3 -3 -42
-52 -85 -110 -44 -58 -100 -131 -125 -163 -25 -33 -50 -66 -56 -75 -5 -8 -22
-29 -37 -45 -16 -17 -28 -33 -28 -37 0 -4 -8 -16 -18 -28 -31 -36 -46 -56
-127 -162 -43 -58 -83 -109 -87 -115 -4 -5 -21 -26 -38 -46 -16 -20 -30 -42
-30 -48 0 -6 -3 -11 -7 -11 -5 0 -33 -34 -63 -75 -30 -41 -58 -75 -62 -75 -4
0 -8 -6 -8 -12 0 -7 -16 -30 -35 -51 -19 -21 -35 -41 -35 -45 0 -4 -10 -19
-22 -32 -13 -14 -34 -41 -48 -60 -32 -46 -35 -50 -66 -85 -14 -16 -33 -42 -42
-57 -9 -16 -20 -28 -24 -28 -4 0 -8 -4 -8 -9 0 -5 -9 -20 -20 -33 -16 -19 -63
-78 -128 -163 -4 -5 -41 -55 -82 -110 -41 -55 -85 -111 -97 -125 -13 -14 -23
-28 -23 -32 0 -3 -6 -13 -14 -20 -12 -13 -45 -56 -199 -258 -88 -115 -102
-133 -119 -152 -10 -10 -18 -22 -18 -28 0 -5 -4 -10 -10 -10 -5 0 -10 -6 -10
-14 0 -8 -4 -16 -8 -18 -5 -1 -44 -50 -88 -108 -43 -58 -83 -110 -89 -116 -5
-6 -19 -23 -30 -38 -54 -74 -130 -171 -137 -174 -5 -2 -8 -8 -8 -13 0 -6 -13
-24 -30 -42 -16 -18 -30 -37 -30 -44 0 -6 -6 -14 -12 -16 -7 -3 523 -6 1179
-6 l1192 -1 23 33 c12 17 31 41 41 52 10 11 27 35 38 53 12 17 24 32 29 32 5
0 11 8 14 18 3 9 19 32 35 49 16 18 39 47 52 65 13 18 65 86 116 151 51 65 93
123 93 128 0 6 5 7 10 4 6 -3 10 1 10 9 0 9 5 16 10 16 6 0 10 6 10 13 0 7 9
19 20 27 11 8 20 20 20 26 0 7 3 14 8 16 4 2 23 23 42 48 19 25 39 51 45 57 5
7 18 23 27 35 9 13 28 37 41 53 13 17 79 102 147 190 68 88 127 162 132 163 4
2 8 8 8 13 0 9 66 95 116 152 13 15 24 30 24 33 0 4 9 16 20 28 16 17 109 137
230 296 14 18 30 38 35 44 6 6 26 32 45 59 18 26 37 47 41 47 4 0 10 8 13 18
3 9 18 31 33 48 16 17 33 38 38 46 33 51 120 158 127 158 5 0 7 4 4 9 -4 5 -3
11 2 13 4 1 30 32 56 68 27 36 54 70 61 75 6 6 20 23 30 39 11 16 28 39 37 50
10 12 63 80 119 151 55 72 105 137 112 145 7 8 44 56 82 105 66 86 163 212
205 265 11 14 27 34 35 45 41 55 149 193 166 213 10 12 19 27 19 32 0 6 4 10
9 10 5 0 19 15 30 33 11 18 32 46 46 62 15 17 40 50 57 75 18 25 35 47 39 50
4 3 27 32 53 65 62 82 79 105 91 118 6 7 24 30 40 52 42 57 42 56 75 95 16 19
32 43 36 53 3 9 9 17 13 17 4 0 27 27 51 60 24 33 47 60 52 60 4 0 8 7 8 15 0
8 5 15 10 15 6 0 10 5 10 10 0 6 10 22 23 35 12 13 30 35 40 50 l19 26 20 -23
c11 -13 32 -39 47 -58 25 -34 56 -71 76 -94 6 -6 37 -45 70 -86 32 -41 64 -80
70 -87 5 -6 33 -39 60 -74 28 -34 74 -91 103 -125 50 -61 62 -84 43 -84 -5 0
-12 -8 -15 -17 -3 -10 -18 -31 -34 -48 -15 -16 -39 -46 -52 -65 -13 -19 -27
-37 -30 -40 -3 -3 -35 -43 -70 -90 -36 -47 -76 -99 -90 -116 -14 -17 -34 -44
-45 -59 -11 -16 -24 -33 -30 -39 -5 -6 -30 -38 -55 -71 -25 -32 -53 -67 -62
-77 -10 -10 -18 -21 -18 -25 0 -5 -14 -22 -30 -40 -17 -18 -30 -35 -30 -38 0
-4 -6 -12 -12 -19 -7 -7 -24 -28 -38 -46 -14 -18 -45 -59 -70 -91 -25 -31 -54
-69 -65 -85 -11 -15 -26 -33 -32 -40 -7 -7 -13 -15 -13 -17 0 -5 -27 -39 -60
-76 -8 -9 -26 -33 -40 -54 -14 -20 -28 -37 -32 -37 -5 0 -8 -5 -8 -10 0 -6
-11 -22 -25 -36 -14 -14 -25 -28 -25 -32 0 -4 -10 -18 -23 -32 -12 -14 -58
-72 -102 -130 -44 -58 -85 -112 -92 -120 -7 -8 -42 -53 -78 -100 -36 -47 -71
-92 -78 -100 -7 -8 -86 -111 -177 -229 -91 -117 -197 -255 -235 -305 -39 -50
-118 -152 -175 -226 -57 -74 -108 -139 -112 -145 -5 -5 -36 -46 -71 -90 -34
-44 -65 -81 -69 -83 -5 -2 -8 -10 -8 -17 0 -7 -3 -15 -8 -17 -6 -2 -54 -62
-115 -143 -4 -5 -15 -20 -25 -32 -9 -12 -26 -33 -36 -48 -11 -14 -27 -35 -35
-45 -20 -23 -30 -37 -137 -175 -47 -60 -96 -123 -108 -140 -13 -16 -41 -52
-61 -79 -21 -28 -42 -55 -46 -60 -5 -6 -20 -26 -35 -43 l-26 -33 1361 0 1360
0 45 59 c25 33 46 64 46 69 0 5 7 12 15 16 8 3 15 10 15 16 0 5 8 18 18 28 9
10 49 62 87 116 39 53 77 105 85 116 8 10 22 28 30 40 26 38 98 134 114 153 9
9 16 22 16 27 0 6 5 10 10 10 6 0 10 6 10 14 0 8 4 16 8 18 4 2 41 48 82 103
41 55 79 103 84 107 6 4 7 8 3 8 -5 0 -2 6 5 14 19 21 44 53 89 116 21 30 45
62 52 70 8 8 29 37 47 65 19 27 40 56 47 65 7 8 37 49 67 90 30 41 62 84 70
95 9 11 31 40 49 65 47 63 121 163 130 175 4 5 21 28 37 50 16 22 34 46 40 53
6 6 8 12 3 12 -4 0 0 6 9 13 9 6 60 73 114 147 54 74 102 137 106 138 5 2 8
10 8 17 0 7 3 15 8 17 4 2 25 28 47 58 22 30 44 60 50 67 5 7 16 19 23 27 6 8
12 19 12 25 0 5 3 11 8 13 4 2 77 98 162 213 85 116 158 212 162 213 5 2 8 8
8 14 0 5 6 15 13 23 6 7 20 23 29 36 9 13 38 53 65 89 26 36 104 142 173 235
144 196 139 190 163 216 9 10 17 21 16 24 0 3 13 23 30 43 39 48 92 120 114
155 19 29 42 59 65 82 6 8 12 17 12 22 0 4 10 19 23 33 12 14 34 41 47 60 13
19 28 40 33 45 4 6 32 44 63 85 30 41 60 82 67 90 6 8 23 32 37 53 14 20 28
37 33 37 4 0 7 7 7 15 0 8 3 15 8 15 4 0 23 25 42 55 19 30 38 54 42 55 4 0
15 16 24 35 9 19 20 32 25 29 5 -3 9 2 9 10 0 9 5 16 10 16 6 0 10 5 10 11 0
11 60 92 73 97 4 2 7 10 7 18 0 8 3 14 8 14 4 0 18 17 32 38 14 20 31 41 38
45 7 5 10 12 7 18 -4 5 -2 9 3 9 5 0 22 19 38 43 16 23 49 69 74 102 25 34 54
73 65 89 59 82 165 223 179 239 9 9 16 22 16 27 0 6 4 10 8 10 5 0 15 12 23
28 8 15 23 37 34 49 11 12 28 33 38 48 l19 26 30 -43 c17 -24 34 -45 37 -48 4
-3 24 -30 46 -60 22 -30 52 -68 67 -85 15 -16 28 -33 28 -37 0 -4 6 -13 13
-20 6 -7 25 -31 41 -53 17 -22 32 -42 35 -45 4 -3 26 -32 51 -65 47 -62 63
-82 93 -117 9 -12 17 -24 17 -27 0 -3 10 -17 23 -31 12 -14 42 -52 67 -85 24
-33 50 -67 58 -75 7 -8 40 -51 73 -95 33 -44 71 -94 84 -110 13 -17 66 -86
119 -155 52 -69 105 -136 116 -150 40 -48 295 -381 305 -398 6 -9 17 -24 25
-32 9 -8 27 -31 40 -50 13 -19 30 -42 37 -50 8 -8 95 -121 193 -250 99 -129
189 -246 200 -260 11 -14 49 -63 85 -110 35 -47 71 -92 80 -101 8 -9 15 -21
15 -27 0 -5 3 -12 8 -14 4 -1 30 -32 57 -68 28 -36 55 -70 60 -77 23 -28 32
-40 60 -78 17 -22 32 -42 35 -45 4 -4 48 -62 128 -168 9 -13 25 -31 35 -40 9
-9 17 -22 17 -29 0 -7 4 -13 8 -13 4 0 27 -26 49 -57 23 -32 52 -71 65 -87 12
-16 42 -53 66 -82 23 -29 42 -57 42 -62 0 -6 4 -12 8 -14 4 -1 23 -23 42 -48
19 -25 37 -47 40 -50 3 -3 27 -34 55 -70 59 -77 60 -78 85 -109 11 -13 20 -27
20 -30 0 -3 10 -17 23 -31 12 -14 42 -52 67 -85 24 -33 50 -67 57 -75 48 -56
103 -130 103 -139 0 -6 4 -11 8 -11 5 0 24 -21 42 -47 19 -27 36 -50 40 -53 3
-3 19 -23 35 -45 16 -22 35 -47 42 -55 87 -110 133 -171 133 -179 0 -5 4 -11
8 -13 7 -3 140 -170 217 -273 36 -49 37 -50 77 -101 18 -22 42 -53 53 -68 43
-58 178 -233 208 -269 l32 -38 1252 3 1252 3 -62 81 c-34 44 -73 96 -87 114
-14 18 -29 38 -35 44 -5 6 -39 50 -75 96 -35 47 -68 87 -72 88 -4 2 -8 9 -8
14 0 6 -7 18 -15 27 -9 9 -38 45 -65 81 -27 36 -53 70 -58 75 -4 6 -37 48 -72
95 -35 47 -69 90 -75 96 -5 6 -17 22 -25 34 -8 12 -20 28 -26 34 -5 6 -39 49
-74 96 -35 47 -72 93 -82 103 -10 10 -18 22 -18 27 0 5 -11 20 -25 34 -14 14
-25 29 -25 35 0 5 -4 11 -8 13 -4 2 -37 41 -72 88 -36 47 -67 87 -70 90 -3 3
-17 21 -30 40 -24 34 -43 59 -65 84 -5 6 -30 38 -54 71 -25 33 -47 62 -51 65
-3 3 -17 21 -30 40 -13 19 -27 37 -30 40 -3 3 -34 43 -70 90 -35 47 -66 87
-70 90 -3 3 -17 21 -30 40 -13 19 -27 37 -30 40 -3 3 -17 21 -30 40 -13 19
-30 39 -37 43 -7 4 -13 14 -13 22 0 7 -4 15 -9 17 -4 2 -39 44 -76 93 -72 94
-226 295 -292 380 -22 28 -75 97 -119 155 -43 58 -81 107 -84 110 -3 3 -21 25
-40 50 -19 25 -38 47 -42 48 -5 2 -8 10 -8 17 0 7 -3 15 -7 17 -5 2 -37 41
-72 88 -35 47 -71 91 -79 98 -9 6 -12 12 -8 12 4 0 -7 15 -23 33 -17 17 -31
36 -31 40 0 5 -7 16 -16 25 -9 9 -41 49 -71 89 l-55 73 23 29 c13 15 32 39 41
52 50 70 174 236 185 247 7 7 13 17 13 21 0 4 8 16 18 27 9 10 35 44 57 74 22
30 43 57 47 58 5 2 8 10 8 18 0 8 5 14 10 14 6 0 14 8 18 19 4 10 19 33 35 52
34 43 78 100 97 129 8 12 20 28 25 34 6 6 23 30 39 53 l29 43 21 -24 c11 -12
48 -58 81 -101 33 -42 67 -86 76 -96 9 -11 27 -35 40 -54 13 -19 27 -35 32
-35 4 0 7 -5 7 -10 0 -11 3 -16 47 -67 16 -17 37 -44 48 -59 18 -25 175 -228
239 -309 14 -16 24 -33 23 -37 -1 -4 6 -13 15 -20 14 -11 82 -96 201 -252 65
-86 251 -324 265 -341 10 -11 28 -36 42 -55 13 -19 27 -37 30 -40 4 -3 37 -45
75 -95 92 -122 139 -179 148 -183 4 -2 7 -10 7 -17 0 -7 3 -15 8 -17 4 -1 31
-34 61 -73 30 -38 58 -71 63 -73 4 -2 8 -10 8 -17 0 -7 3 -15 8 -17 4 -1 51
-59 104 -128 52 -69 105 -136 117 -149 11 -13 21 -27 21 -30 0 -4 12 -20 28
-37 15 -17 61 -76 102 -129 41 -54 81 -104 88 -111 6 -7 12 -15 12 -19 0 -3
13 -20 30 -38 16 -18 30 -35 30 -38 0 -3 8 -15 18 -27 25 -30 124 -156 212
-271 66 -87 115 -146 122 -149 4 -2 8 -10 8 -18 0 -8 4 -14 8 -14 4 0 16 -14
26 -30 9 -17 28 -41 42 -55 13 -13 24 -27 24 -30 0 -4 6 -13 14 -20 8 -8 36
-44 62 -80 26 -36 51 -65 56 -65 4 0 8 -5 8 -11 0 -6 6 -16 13 -24 6 -7 23
-28 37 -46 14 -18 30 -37 35 -43 6 -6 30 -38 54 -71 25 -33 47 -62 50 -65 4
-3 42 -52 86 -110 43 -58 84 -111 89 -117 6 -7 19 -23 28 -35 53 -68 152 -196
166 -213 10 -11 35 -44 57 -73 l39 -52 1189 0 1189 0 -36 44 c-20 24 -36 48
-36 53 0 4 -9 14 -20 21 -11 7 -20 17 -20 22 0 6 -8 18 -17 28 -10 11 -27 32
-38 48 -11 15 -28 36 -37 46 -10 10 -18 21 -18 24 0 3 -18 28 -40 54 -22 26
-40 50 -40 53 0 3 -12 19 -26 34 -15 15 -37 44 -49 63 -12 19 -32 46 -44 60
-30 36 -30 36 -101 130 -35 47 -75 96 -87 110 -13 14 -23 30 -23 37 0 6 -3 13
-8 15 -4 2 -23 23 -42 48 -19 25 -43 54 -52 64 -10 11 -18 23 -18 26 0 4 -12
20 -26 36 -14 16 -33 40 -42 54 -9 14 -22 32 -29 40 -12 13 -146 188 -226 294
-12 15 -34 43 -49 61 -16 18 -28 36 -28 39 0 4 -13 21 -30 39 -16 18 -30 35
-30 39 0 4 -6 13 -13 20 -7 7 -28 33 -47 58 -19 25 -40 51 -47 58 -7 7 -13 17
-13 21 0 4 -8 16 -18 27 -9 10 -33 39 -52 64 -19 25 -37 47 -41 50 -3 3 -8 10
-10 16 -2 7 -18 29 -35 50 -69 85 -184 235 -184 240 0 3 -6 11 -12 18 -7 7
-22 25 -33 40 -11 16 -25 33 -30 40 -6 6 -24 29 -40 51 -17 22 -32 42 -35 45
-3 3 -25 32 -50 65 -25 33 -48 62 -52 63 -5 2 -8 8 -8 13 0 5 -8 17 -17 27
-10 10 -25 29 -33 42 -8 12 -20 28 -25 34 -6 6 -40 49 -75 96 -35 47 -69 90
-75 97 -19 23 -31 38 -55 73 -13 19 -27 37 -30 40 -3 3 -34 43 -70 90 -35 47
-67 87 -70 90 -3 3 -17 21 -30 40 -20 29 -79 106 -183 240 -7 9 -32 42 -56 75
-25 33 -47 62 -50 65 -4 3 -42 52 -86 110 -43 58 -83 110 -87 115 -5 6 -41 53
-80 105 -39 52 -82 109 -95 125 -28 36 -21 27 -118 155 -44 58 -82 107 -86
110 -3 3 -18 23 -35 45 -16 22 -32 44 -37 50 -14 19 -107 140 -115 150 -4 6
-21 28 -37 50 -17 22 -32 42 -35 45 -3 3 -32 41 -65 85 -33 44 -62 82 -65 85
-3 3 -25 32 -50 65 -25 33 -53 69 -63 80 -10 11 -25 32 -33 48 -8 15 -19 27
-24 27 -6 0 -10 4 -10 10 0 9 -25 42 -57 76 -7 7 -13 15 -13 19 0 6 -45 65
-80 106 -22 25 -33 40 -60 79 -13 19 -27 37 -30 40 -3 3 -28 34 -55 70 -27 36
-52 67 -55 70 -3 3 -18 24 -34 48 -16 23 -32 42 -37 42 -4 0 -10 8 -13 18 -4
10 -14 27 -24 38 -9 10 -53 66 -96 124 -44 58 -82 107 -85 110 -7 6 -59 74
-81 106 -18 26 -133 177 -140 184 -3 3 -25 32 -50 65 -24 33 -54 71 -67 85
-13 14 -23 28 -23 32 0 3 -6 13 -12 20 -7 7 -35 42 -63 78 -27 36 -52 67 -55
70 -3 3 -16 21 -30 40 -13 19 -28 40 -32 45 -7 8 -50 64 -158 205 -10 14 -26
34 -35 45 -8 11 -51 67 -95 125 -44 58 -83 110 -87 115 -5 6 -32 40 -61 76
-28 37 -52 70 -52 73 0 3 -8 14 -17 24 -10 10 -40 47 -66 81 l-49 63 -18 -28
c-10 -16 -27 -39 -39 -51 -12 -13 -18 -23 -14 -23 4 0 3 -4 -2 -8 -8 -5 -135
-172 -227 -297 -10 -14 -76 -97 -88 -112 -6 -7 -10 -17 -10 -23 0 -5 -4 -10
-9 -10 -5 0 -13 -9 -16 -20 -4 -11 -11 -18 -16 -15 -5 4 -9 1 -9 -5 0 -8 -234
-326 -334 -455 -33 -41 -102 -133 -121 -159 -11 -16 -25 -33 -30 -40 -6 -6
-28 -36 -50 -66 -22 -30 -44 -60 -50 -66 -5 -7 -19 -24 -30 -40 -11 -15 -25
-32 -30 -38 -6 -6 -18 -22 -28 -36 -47 -69 -262 -354 -289 -384 -10 -11 -18
-23 -18 -27 0 -4 -6 -14 -13 -21 -7 -7 -33 -40 -57 -73 -25 -33 -47 -62 -50
-65 -3 -3 -23 -30 -45 -60 -22 -30 -42 -57 -45 -60 -3 -3 -17 -21 -30 -40 -14
-19 -30 -42 -37 -50 -7 -8 -44 -57 -83 -109 -38 -52 -70 -90 -70 -85 0 6 -8
19 -18 30 -10 10 -38 46 -62 79 -25 33 -47 62 -51 65 -3 3 -32 40 -63 83 -32
42 -63 77 -69 77 -6 0 -8 3 -4 6 3 4 1 12 -6 19 -7 7 -19 23 -27 35 -17 25
-104 138 -123 160 -8 8 -56 71 -108 140 -93 123 -107 142 -141 182 -10 12 -18
24 -18 27 0 3 -18 26 -40 51 -22 25 -40 48 -40 52 0 4 -6 13 -13 20 -7 7 -28
33 -47 58 -19 25 -39 50 -45 57 -5 6 -21 28 -35 48 -14 19 -42 54 -62 78 -21
23 -38 47 -38 54 0 6 -3 13 -8 15 -4 2 -30 32 -57 68 -28 36 -52 67 -55 70 -3
3 -30 39 -61 81 -31 41 -64 83 -74 92 -9 9 -14 17 -10 17 4 0 -1 7 -9 16 -9 9
-29 32 -44 52 -15 21 -31 42 -37 48 -5 7 -19 24 -30 40 -11 15 -24 32 -30 38
-5 6 -57 74 -115 151 -58 77 -111 146 -117 153 -7 7 -52 66 -100 130 -48 64
-90 119 -93 122 -3 3 -28 34 -55 70 -27 36 -55 71 -61 77 -7 7 -22 28 -34 48
-12 19 -26 35 -31 35 -5 0 -9 4 -9 10 0 5 -9 20 -19 32 -20 23 -131 167 -299
388 -48 63 -97 126 -109 140 -13 14 -23 28 -23 31 0 3 -10 17 -21 30 -12 13
-40 49 -62 79 -22 30 -43 57 -46 60 -4 3 -34 42 -67 87 l-62 82 -30 -35z"/>
</g>
</svg>
