<svg xmlns="http://www.w3.org/2000/svg" width="50" height="28" fill="none"><path fill="#162B73" d="M35.419.194c-1.108.5-1.63 1.865-1.13 2.941.139.277 1.524 1.737 4.05 4.263 2.12 2.11 3.847 3.869 3.847 3.911 0 .054-9.133.086-20.28.086H1.613l-.47.245c-.724.383-1.097.99-1.14 1.865-.042.863.224 1.47.864 1.982l.415.33 20.452.032c11.243.011 20.451.064 20.451.107s-1.748 1.822-3.89 3.965c-4.199 4.199-4.295 4.316-4.188 5.264.075.64.533 1.386 1.066 1.737.597.395 1.577.47 2.174.16.533-.277 12.203-11.979 12.469-12.49.256-.522.245-1.428-.043-1.972-.32-.628-12-12.256-12.511-12.469-.533-.213-1.322-.202-1.844.043Z"/></svg>
