<svg xmlns="http://www.w3.org/2000/svg" width="18" height="20" fill="none"><path fill="#162B73" d="M15.875.375H3.5A1.375 1.375 0 0 0 2.125 1.75V4.5H.75v1.375h1.375v3.438H.75v1.374h1.375v3.438H.75V15.5h1.375v2.75A1.375 1.375 0 0 0 3.5 19.625h12.375a1.375 1.375 0 0 0 1.375-1.375V1.75A1.375 1.375 0 0 0 15.875.375Zm0 17.875H3.5V15.5h1.375v-1.375H3.5v-3.438h1.375V9.313H3.5V5.874h1.375V4.5H3.5V1.75h12.375v16.5Z"/><path fill="#162B73" d="M7.625 4.5h5.5v1.375h-5.5V4.5Zm0 4.813h5.5v1.374h-5.5V9.313Zm0 4.812h5.5V15.5h-5.5v-1.375Z"/></svg>