<svg xmlns="http://www.w3.org/2000/svg" width="27" height="32"><path fill="#162B73" d="m24.576 16 2.464 2.4q.544.512.352 1.248-.224.736-.928.928l-3.36.864.96 3.296q.192.736-.352 1.248-.512.576-1.248.352l-3.328-.96-.864 3.36q-.16.736-.896.96-.224.032-.352.032-.544 0-.896-.416l-2.4-2.464-2.432 2.464q-.48.544-1.248.384-.736-.224-.896-.96l-.864-3.36-3.328.96q-.736.224-1.248-.352-.544-.512-.32-1.248l.928-3.296-3.36-.864q-.704-.192-.928-.928-.192-.736.352-1.248L2.848 16 .384 13.6q-.544-.512-.352-1.248.224-.736.928-.928l3.36-.864-.928-3.296q-.224-.736.32-1.28.512-.544 1.248-.32l3.328.928.864-3.328q.16-.736.896-.928.736-.224 1.248.352l2.432 2.464 2.4-2.464q.512-.544 1.248-.352t.896.928l.864 3.328 3.328-.928q.736-.224 1.248.32.544.544.352 1.28l-.96 3.296 3.36.864q.704.192.928.928.192.736-.352 1.248z"/></svg>
