<svg xmlns="http://www.w3.org/2000/svg" width="27" height="32"><path fill="#162B73" d="M16 9.728v8q0 .224-.16.384t-.416.16H9.728q-.256 0-.416-.16t-.16-.384v-1.152q0-.256.16-.416t.416-.16h4V9.728q0-.256.16-.416t.384-.16h1.152q.256 0 .416.16t.16.416zM23.424 16q0-2.656-1.312-4.864t-3.52-3.552-4.864-1.312-4.896 1.312-3.52 3.552T4 16t1.312 4.864 3.52 3.552 4.896 1.312 4.864-1.312 3.52-3.552T23.424 16zm4 0q0 3.744-1.824 6.88t-4.992 4.992-6.88 1.856-6.912-1.856-4.96-4.992T0 16t1.856-6.88 4.96-4.992 6.912-1.856 6.88 1.856T25.6 9.12 27.424 16z"/></svg>
