<svg xmlns="http://www.w3.org/2000/svg" width="41" height="32"><path fill="#162B73" d="m11.424 29.152 6.848-3.424v-5.632l-6.848 2.944v6.112zm-1.152-8.128 7.232-3.072-7.232-3.104-7.2 3.104zm19.456 8.128 6.848-3.424v-5.632l-6.848 2.944v6.112zm-1.152-8.128 7.2-3.072-7.2-3.104-7.232 3.104zm-8-5.216 6.848-2.944V8.096l-6.848 2.944v4.768zm-1.152-6.784 7.872-3.36-7.872-3.392-7.872 3.392zm19.424 9.248v7.456q0 .64-.32 1.184t-.928.832l-8 4q-.448.256-1.024.256t-1.024-.256l-8-4-.128-.064q-.032.032-.128.064l-8 4q-.448.256-1.024.256t-.992-.256l-8-4q-.608-.288-.928-.832T0 25.728v-7.456q0-.672.384-1.248t1.024-.832l7.744-3.328V5.728q0-.704.384-1.28t.992-.832l8-3.424Q18.944 0 19.424 0t.896.192l8 3.424q.64.288 1.024.832t.384 1.28v7.136l7.744 3.328q.64.256 1.024.832t.352 1.248z"/></svg>
