<svg xmlns="http://www.w3.org/2000/svg" width="50" height="35" fill="none"><path fill="#162B73" d="M3.269.162c-1.133.283-2.09.976-2.656 1.923-.645 1.084-.616.284-.616 15.323S-.032 31.646.613 32.73c.566.947 1.66 1.709 2.783 1.953.732.156 42.46.156 43.203 0 1.142-.244 2.197-.986 2.783-1.953.644-1.084.615-.283.615-15.322 0-15.04.03-14.239-.615-15.323-.586-.966-1.64-1.708-2.783-1.953-.791-.166-42.666-.136-43.33.03Zm41.874 2.422c-.185.214-19.345 20.673-19.794 21.152l-.215.215-10.049-10.713C9.548 7.349 5.017 2.496 4.997 2.447c-.02-.04 9.053-.078 20.157-.078h20.185l-.195.215Zm-34.355 9.482c4.063 4.345 7.354 7.93 7.315 7.978-.166.157-14.746 11.875-14.863 11.953-.176.108-.498-.195-.713-.674-.176-.37-.186-.996-.186-13.876 0-9.805.03-13.574.108-13.809l.117-.312.41.42c.225.234 3.74 3.984 7.812 8.32Zm36.856 5.342c.01 12.87 0 13.544-.176 13.915-.362.801-.284.83-2.52-.976-1.123-.908-4.463-3.594-7.431-5.986-2.97-2.393-5.381-4.375-5.371-4.424.02-.04 3.476-3.75 7.695-8.242 6.142-6.543 7.676-8.135 7.724-7.988.04.097.079 6.26.079 13.7Zm-25.615 6.66c2.372 2.529 2.44 2.597 2.851 2.705.596.166.791.01 3.213-2.559 1.28-1.347 2.353-2.46 2.392-2.46.03 0 3.028 2.392 6.67 5.322l6.602 5.322-9.336.029c-5.137.01-13.525.01-18.633 0l-9.287-.03 2.49-2.001c1.368-1.104 4.346-3.506 6.631-5.342a563.26 563.26 0 0 1 4.17-3.35c.01 0 1.016 1.065 2.236 2.364Z"/></svg>
