<svg xmlns="http://www.w3.org/2000/svg" width="51" height="58" fill="none"><path fill="#162B73" d="M21.983.77c0 .223-.134.3-.926.58-1.886.67-3.426 1.63-4.944 3.103-2.087 2.02-3.438 4.475-3.996 7.232-.156.781-.078.725-1.16 1.004-1.82.469-2.456 3.036-1.105 4.442.2.212.547.48.781.603.402.2.424.234.257.402-.402.457-.782 1.518-.826 2.388-.078 1.384.268 2.377 1.183 3.348.625.681 1.294 1.072 2.176 1.317l.67.179.245.67c.681 1.807 1.306 2.645 4.074 5.412 3.125 3.137 3.315 3.226 7.255 3.226 3.95 0 4.129-.09 7.254-3.226 2.768-2.779 3.393-3.605 4.074-5.413l.245-.67.67-.178c.882-.245 1.551-.636 2.176-1.317.915-.97 1.261-1.964 1.183-3.348-.044-.87-.424-1.93-.826-2.388-.167-.168-.145-.201.257-.402.558-.29 1.094-.86 1.328-1.418.246-.591.235-1.573-.033-2.187-.29-.636-1.005-1.284-1.619-1.44-1.082-.279-1.004-.223-1.16-1.004-.558-2.757-1.909-5.212-3.996-7.232-1.518-1.474-3.058-2.433-4.944-3.103-.793-.28-.927-.357-.927-.58V.524h-7.366V.77Zm5.58 5.78v4.13h1.786V2.97l.257.077c.57.168 1.931.849 2.623 1.317 1.596 1.06 3.114 2.723 4.04 4.442.435.804 1.016 2.433 1.16 3.237l.079.424H13.825l.078-.424c.145-.804.726-2.433 1.16-3.237.927-1.718 2.445-3.381 4.041-4.442.692-.468 2.054-1.15 2.634-1.317l.245-.078v7.712h1.786V2.421h3.795v4.13Zm12.557 8.092a.87.87 0 0 1 .279.614.87.87 0 0 1-.28.614l-.267.279H11.48l-.268-.279a.87.87 0 0 1-.279-.614c0-.212.1-.446.28-.614l.267-.279H39.852l.268.28Zm-4.33 6.328c-.034 2.6-.079 3.025-.29 3.75a8.684 8.684 0 0 1-1.162 2.478c-.49.737-4.743 5-5.268 5.28-.424.233-.58.245-3.404.245-2.823 0-2.98-.011-3.404-.246-.524-.279-4.776-4.542-5.267-5.279a8.684 8.684 0 0 1-1.161-2.478c-.212-.725-.257-1.15-.29-3.75l-.056-2.924h20.358l-.057 2.924Zm-22.066-.145c0 2.478-.01 2.556-.212 2.5-.368-.089-1.116-.814-1.372-1.305-.57-1.072-.201-2.623.792-3.382.815-.625.793-.692.793 2.187Zm24.677-2.187c.993.759 1.361 2.31.792 3.381-.256.492-1.004 1.217-1.372 1.306-.201.056-.212-.022-.212-2.5 0-2.88-.023-2.812.792-2.187Z"/><path fill="#162B73" d="M18.3 9.732v.948h1.786V8.782H18.3v.95ZM31.247 9.732v.948h1.786V8.782h-1.786v.95ZM17.408 34.274v.603l-4.264 1.428c-4.62 1.54-5.625 1.976-6.942 3.036-1.618 1.317-2.88 3.315-3.37 5.323C2.664 45.368.667 57.198.667 57.5c0 .145 2.611.168 25 .168 22.388 0 25-.023 25-.168 0-.301-1.998-12.131-2.166-12.835-.49-2.008-1.752-4.006-3.37-5.323-1.317-1.06-2.322-1.496-6.931-3.036l-4.275-1.428V33.67H32.14v.86c-.011.692-.157 1.45-.703 3.638l-.692 2.779-1.875-2.243-1.864-2.244h-2.668l-1.875 2.233-1.875 2.232-.692-2.757c-.547-2.188-.692-2.946-.703-3.638v-.86H17.408v.603Zm1.227 6.428c.536 2.121.994 3.929 1.016 4.007.044.112.413-.257 1.049-1.027.558-.658 1.027-1.194 1.06-1.194.034 0 .29.368.58.815l.525.803-.837 5.804c-.446 3.18-.826 5.804-.826 5.826 0 .022-2.288.033-5.078.033-3.761 0-5.078-.033-5.078-.133 0-.068.179-1.876.39-4.03.224-2.142.38-3.917.358-3.94-.023-.022-.424-.077-.893-.133-.826-.09-.87-.078-.915.134-.023.134-.157 1.361-.29 2.745-.134 1.384-.246 2.523-.268 2.545-.012.011-1.34-.134-2.958-.335-1.953-.245-2.946-.413-2.98-.502-.078-.19 1.05-6.853 1.272-7.5.235-.726.77-1.764 1.217-2.366.58-.793 1.741-1.82 2.578-2.3.76-.423 8.627-3.169 8.951-3.124.123.01.447 1.138 1.127 3.873Zm19.241-2.566c2.255.747 4.342 1.517 4.777 1.752.87.468 2.098 1.54 2.69 2.355.457.613.993 1.651 1.227 2.377.224.647 1.351 7.31 1.273 7.5-.034.09-1.027.257-2.98.502-1.618.201-2.947.346-2.958.335-.022-.022-.134-1.16-.267-2.545a110.106 110.106 0 0 0-.29-2.745c-.045-.212-.09-.224-.916-.134-.469.056-.87.111-.893.134-.022.022.134 1.797.357 3.94.212 2.154.391 3.962.391 4.029 0 .1-1.317.133-5.078.133-2.79 0-5.078-.01-5.078-.033 0-.022-.38-2.645-.826-5.826l-.837-5.803.524-.804c.29-.447.558-.815.592-.815.033 0 .513.525 1.049 1.183.536.648.993 1.16 1.016 1.139.01-.023.457-1.775.993-3.884 1.071-4.32 1.016-4.13 1.15-4.13.044 0 1.886.603 4.084 1.34Zm-10.613 1.517 1.07 1.284-.892 1.35-.904 1.35.848 5.871c.469 3.226.848 5.96.848 6.06 0 .19-.2.201-2.567.201-2.366 0-2.567-.01-2.567-.2 0-.1.38-2.835.838-6.072l.848-5.882-.893-1.339-.893-1.34 1.072-1.283 1.071-1.294h1.049l1.072 1.294ZM6.28 54.453c3.26.39 3.103.334 2.913 1.06l-.067.256h-3.18c-2.97 0-3.17-.01-3.114-.2.033-.1.089-.447.134-.748.078-.592.122-.726.245-.726.045-.01 1.418.157 3.07.358Zm42.065.2c.045.28.1.636.134.804l.067.312h-6.34l-.066-.256c-.19-.726-.324-.67 2.645-1.05 1.484-.19 2.88-.334 3.091-.323.369.011.391.033.47.513Z"/></svg>
