<svg xmlns="http://www.w3.org/2000/svg" width="51" height="58" fill="none"><path fill="#162B73" d="M23.88.463c-1.421.157-2.428.325-3.357.56-3.411.85-6.465 2.583-9.004 5.134C8.085 9.59 6.116 13.942 5.803 18.83c-.078 1.119-.09 1.152-.369 1.208-2.215.481-3.658 1.499-4.43 3.12-.67 1.433-.67 1.41-.67 8.39 0 5.738.022 6.443.2 7.092.627 2.27 2.193 3.78 4.475 4.306.56.135 1.365.18 3.087.18h2.327l.28-.28c.156-.157.313-.436.357-.627.09-.458.09-20.883 0-21.342a1.658 1.658 0 0 0-.346-.626c-.258-.258-.37-.28-1.533-.302l-1.241-.034.033-.895c.134-3.21 1.298-6.543 3.233-9.262 1.309-1.834 3.669-3.937 5.704-5.078 2.372-1.32 5.638-2.159 8.423-2.159 2.786 0 6.052.84 8.423 2.16 2.036 1.14 4.396 3.243 5.705 5.077 1.935 2.719 3.098 6.052 3.233 9.262l.033.895-1.242.034c-1.174.022-1.275.044-1.532.313-.179.179-.313.47-.358.75-.033.256-.056 5.19-.033 10.961l.033 10.504.37.324c.357.313.39.324 1.588.324h1.219l-.056.582c-.313 3.233-1.074 5.201-2.55 6.555-1.455 1.32-3.927 2.114-7.238 2.326l-1.185.079-.067-.694c-.09-.828-.269-1.208-.795-1.666-.615-.537-1.185-.605-5.19-.56-3.21.034-3.58.056-3.937.246-.548.291-.772.515-1.018.985-.19.369-.213.682-.213 2.707 0 2.427.045 2.718.537 3.243.672.716.795.739 5.056.739 3.792 0 3.882 0 4.363-.258.704-.346 1.118-.984 1.197-1.845l.067-.682.57-.056c.313-.034 1.152-.112 1.857-.18 4.821-.458 7.774-2.125 9.34-5.257.705-1.41 1.085-2.852 1.32-5.022l.134-1.286.794-.19c2.26-.56 3.759-2.014 4.385-4.262.168-.638.19-1.365.19-7.137 0-5.895-.022-6.487-.201-7.159-.671-2.349-2.215-3.713-4.9-4.295-.279-.056-.29-.09-.368-1.208C44.27 9.624 37.537 2.163 28.465.665c-.95-.157-3.859-.291-4.586-.202ZM8.89 31.493V41H7.805c-3.333-.011-4.843-.962-5.28-3.3-.167-.895-.167-11.521 0-12.416.247-1.342.951-2.304 2.07-2.819.716-.324 1.533-.447 3.098-.47l1.197-.01v9.507Zm36.801-9.128c1.141.425 1.98 1.286 2.316 2.394.179.581.201 1.185.179 6.733-.023 5.817-.034 6.13-.258 6.857-.201.638-.346.884-.872 1.42-.928.94-1.521 1.142-3.624 1.209l-1.656.044V22.075l1.712.056c1.197.033 1.845.1 2.203.235ZM29.472 53.752v1.79h-6.823v-3.58h6.823v1.79Z"/></svg>
