<svg xmlns="http://www.w3.org/2000/svg" width="15" height="15" fill="none"><path fill="#162B73" d="M7.498 4.999a2.506 2.506 0 0 0-2.5 2.501 2.506 2.506 0 0 0 2.5 2.501A2.506 2.506 0 0 0 10 7.5a2.506 2.506 0 0 0-2.5-2.501ZM15 7.5c0-1.036.01-2.062-.048-3.096-.059-1.2-.332-2.266-1.21-3.144C12.86.38 11.797.108 10.596.05 9.56-.01 8.534 0 7.5 0 6.464 0 5.438-.008 4.404.05 3.204.107 2.138.38 1.26 1.26.38 2.14.108 3.203.05 4.404-.01 5.44 0 6.466 0 7.5c0 1.034-.009 2.062.05 3.096.058 1.2.331 2.266 1.21 3.145.88.88 1.943 1.152 3.144 1.21 1.036.058 2.062.048 3.096.048 1.036 0 2.062.01 3.096-.048 1.2-.059 2.266-.332 3.145-1.21.88-.88 1.152-1.944 1.21-3.145.06-1.034.048-2.06.048-3.096Zm-7.5 3.848A3.843 3.843 0 0 1 3.648 7.5 3.843 3.843 0 0 1 7.5 3.652 3.843 3.843 0 0 1 11.345 7.5a3.843 3.843 0 0 1-3.848 3.848Zm4.005-6.955a.898.898 0 1 1 0-1.798.898.898 0 1 1 0 1.798Z"/></svg>
