<svg xmlns="http://www.w3.org/2000/svg" width="51" height="55" fill="none"><path fill="#162B73" d="M25.084.632c-.17.106-1.292 1.186-2.49 2.383l-2.171 2.183H13.4c-7.627 0-7.469-.011-7.733.582-.096.201-.127 2.076-.127 7.288v7.013L3.25 22.359C2.001 23.609.9 24.763.815 24.922c-.127.244-.148 2.373-.148 14.587 0 10.858.031 14.364.127 14.576.275.604-.138.583 10.519.583s10.243.021 10.519-.583c.244-.54.074-1.133-.413-1.388-.255-.127-1.632-.148-8.697-.148h-8.4l10.677-10.667 10.668-10.678 10.667 10.678 10.678 10.667h-8.4c-9.121 0-8.835-.021-9.11.583-.16.35-.16.604 0 .953.275.604-.138.583 10.518.583 10.657 0 10.244.021 10.52-.583.095-.212.127-3.718.127-14.576 0-12.214-.022-14.343-.149-14.587-.084-.159-1.186-1.313-2.436-2.563l-2.288-2.278v-7.013c0-5.212-.032-7.087-.127-7.288-.265-.593-.106-.582-7.733-.582H30.91l-2.224-2.236C27.456 1.734 26.334.664 26.176.58c-.382-.201-.71-.19-1.092.053Zm1.695 3.506 1.06 1.06h-4.344l1.06-1.06c.582-.582 1.08-1.06 1.112-1.06.031 0 .53.478 1.112 1.06Zm16.896 14.439v11.25l-4.078 4.078-4.079 4.079-4.629-4.63c-3.093-3.082-4.735-4.65-4.926-4.692a1.35 1.35 0 0 0-.582 0c-.202.042-1.844 1.61-4.937 4.692l-4.63 4.63-4.078-4.079-4.078-4.078V7.317H43.675v11.26ZM5.54 25.452v2.256l-1.134-1.133-1.144-1.144 1.112-1.113a44.943 44.943 0 0 1 1.134-1.112c.02 0 .032 1.017.032 2.246Zm41.387 1.112-1.133 1.144v-4.555l1.133 1.144 1.144 1.134-1.144 1.133Zm-38.4 18.697-5.742 5.752V28.026l5.742 5.752 5.752 5.742-5.752 5.741Zm40.021-5.72v11.472l-5.742-5.741-5.752-5.752 5.72-5.72c3.147-3.147 5.732-5.721 5.742-5.721.021 0 .032 5.159.032 11.462Z"/><path fill="#162B73" d="M15.645 11.236c-.593.243-.762 1.144-.317 1.663l.254.296H35.75l.255-.296c.35-.403.35-1.017 0-1.42l-.255-.296-9.947-.022c-5.466-.01-10.042.022-10.159.075ZM15.645 17.168c-.593.244-.762 1.144-.317 1.663l.254.297H35.75l.255-.297c.35-.402.35-1.017 0-1.42l-.255-.296-9.947-.021c-5.466-.01-10.042.021-10.159.074ZM19.533 23.142c-.71.392-.688 1.515.043 1.844.2.095 1.81.127 6.09.127 4.28 0 5.89-.032 6.092-.127.307-.138.582-.583.582-.933 0-.35-.275-.794-.582-.932-.424-.19-11.875-.17-12.225.021ZM25.148 52.698c-.922.508-.53 1.97.519 1.97.54 0 1.059-.52 1.059-1.049 0-.794-.88-1.313-1.578-.921Z"/></svg>
