<svg xmlns="http://www.w3.org/2000/svg" width="50" height="75" fill="none"><path fill="#162B73" d="M21.319.76C15.123 1.82 9.755 5.286 6.273 10.47 4.586 13 3.558 15.392 2.868 18.444c-.276 1.258-.322 1.948-.322 4.478 0 2.654.046 3.206.414 4.908 1.948 9.203 9.249 23.252 19.939 38.39 1.994 2.822 2.162 2.807 4.279-.015 3.252-4.372 6.994-9.94 9.816-14.694 5.43-9.11 8.773-16.917 10.123-23.68.49-2.485.506-7.179.015-9.357-.675-3.036-1.749-5.52-3.42-8.02C40.184 5.177 34.586 1.65 28.267.698 26.81.47 22.76.515 21.319.761Zm8.512 2.44c1.902.475 2.822.828 4.678 1.794 5.583 2.868 9.632 8.497 10.675 14.847.368 2.223.23 5.66-.322 8.282-1.319 6.319-5.2 14.908-10.936 24.248-2.622 4.249-8.527 12.884-8.895 12.991-.123.046-.307-.215-3.175-4.478C12.377 46.834 6.258 34.41 4.893 26.481 3.236 16.758 8.68 7.356 17.99 3.844c.828-.307 2.914-.844 4.248-1.074.215-.03 1.657-.046 3.221-.015 2.454.03 3.052.092 4.371.444Z"/><path fill="#162B73" d="M22.653 10.285c-2.714.49-5.092 1.81-7.131 3.973-.997 1.058-1.412 1.64-2.025 2.883-1.089 2.224-1.411 3.558-1.411 5.936 0 2.3.322 3.68 1.319 5.751 1.702 3.482 4.893 5.966 8.834 6.902 1.473.337 4.218.307 5.828-.077 4.632-1.12 8.267-4.724 9.54-9.494.43-1.64.43-4.524-.015-6.227-1.288-4.969-5.383-8.788-10.353-9.662-1.64-.276-2.975-.276-4.586.015Zm5.108 2.285c1.288.338 3.19 1.35 4.264 2.255 2.745 2.316 4.187 6.012 3.711 9.51-.567 4.186-3.251 7.514-7.193 8.926-1.242.444-1.442.475-3.543.475s-2.3-.03-3.543-.475c-3.113-1.105-5.613-3.605-6.672-6.642-2.208-6.334 1.795-13.067 8.497-14.279.966-.184 3.436-.061 4.479.23ZM35.092 61.374c-.153.169-.276.522-.276.782 0 .69.537 1.043 1.794 1.166 2.868.291 7.623 1.503 9.418 2.408 1.794.905 2.208 1.564 1.41 2.316-1.564 1.472-6.487 2.791-13.312 3.604-3.344.399-14.908.399-18.252 0-6.794-.797-11.748-2.147-13.297-3.604-.798-.752-.4-1.426 1.334-2.3 1.703-.844 5.598-1.902 8.344-2.255 1.395-.184 1.917-1.013 1.18-1.856l-.352-.43-1.749.261c-2.239.338-5.536 1.166-7.116 1.795C1.288 64.426 0 65.669 0 67.34c0 3.082 5.414 5.26 15.95 6.441 3.022.322 11.719.46 15.124.23C43.052 73.17 50 70.715 50 67.325c0-2.561-3.482-4.432-10.675-5.751-.89-.17-2.162-.353-2.807-.4-1.027-.091-1.196-.06-1.426.2Z"/></svg>
