<svg xmlns="http://www.w3.org/2000/svg" width="34" height="32"><path fill="#162B73" d="M13.728 20.576h6.848v-1.728h-2.304v-8h-2.016L13.6 13.312l1.376 1.408q.768-.64.992-.992H16v5.12h-2.272v1.728zM22.848 16q0 1.248-.352 2.528t-1.088 2.4-1.792 1.792-2.464.704-2.464-.704-1.824-1.792-1.056-2.4T11.424 16t.384-2.528 1.056-2.4 1.824-1.792 2.464-.704 2.464.704 1.792 1.792 1.088 2.4.352 2.528zM32 20.576v-9.152q-1.888 0-3.232-1.344t-1.344-3.232H6.848q0 1.888-1.344 3.232t-3.232 1.344v9.152q1.92 0 3.232 1.344t1.344 3.232h20.576q0-1.888 1.344-3.232T32 20.576zm2.272-14.848v20.544q0 .48-.32.8t-.8.352h-32q-.48 0-.8-.352t-.352-.8V5.728q0-.48.352-.832t.8-.32h32q.448 0 .8.32t.32.832z"/></svg>
