<svg xmlns="http://www.w3.org/2000/svg" width="32" height="36" fill="none"><path fill="#162B73" fill-rule="evenodd" d="M2.875.938a1.313 1.313 0 1 0 0 2.625v28.875H1.562a1.313 1.313 0 0 0 0 2.624h28.875a1.313 1.313 0 0 0 0-2.624h-1.312V3.561a1.313 1.313 0 0 0 0-2.624H2.875ZM10.75 7.5a1.313 1.313 0 0 0 0 2.625h2.625a1.313 1.313 0 0 0 0-2.625H10.75Zm-1.313 6.563a1.313 1.313 0 0 1 1.313-1.313h2.625a1.313 1.313 0 0 1 0 2.625H10.75a1.313 1.313 0 0 1-1.313-1.313ZM10.75 18a1.313 1.313 0 0 0 0 2.625h2.625a1.313 1.313 0 0 0 0-2.625H10.75Zm6.563-9.188A1.313 1.313 0 0 1 18.625 7.5h2.625a1.313 1.313 0 0 1 0 2.625h-2.625a1.313 1.313 0 0 1-1.313-1.313Zm1.312 3.938a1.313 1.313 0 0 0 0 2.625h2.625a1.313 1.313 0 0 0 0-2.625h-2.625Zm-1.313 6.563A1.313 1.313 0 0 1 18.625 18h2.625a1.313 1.313 0 0 1 0 2.625h-2.625a1.313 1.313 0 0 1-1.313-1.313ZM10.75 31.124v-3.938a1.313 1.313 0 0 1 1.313-1.312h7.874a1.313 1.313 0 0 1 1.313 1.313v3.937a1.313 1.313 0 0 1-1.313 1.313h-7.875a1.313 1.313 0 0 1-1.312-1.313Z" clip-rule="evenodd"/></svg>