<svg xmlns="http://www.w3.org/2000/svg" width="27" height="32"><path fill="#162B73" d="m20.928 14.528-7.552 7.52q-.352.352-.8.352t-.8-.352L6.528 16.8q-.352-.352-.352-.8t.352-.8l1.824-1.824q.32-.352.8-.352t.8.352L12.576 16l4.896-4.928q.352-.32.8-.32t.832.32l1.824 1.824q.32.352.32.832t-.32.8zM23.424 16q0-2.656-1.312-4.864t-3.52-3.552-4.864-1.312-4.896 1.312-3.52 3.552T4 16t1.312 4.864 3.52 3.552 4.896 1.312 4.864-1.312 3.52-3.552T23.424 16zm4 0q0 3.744-1.824 6.88t-4.992 4.992-6.88 1.856-6.912-1.856-4.96-4.992T0 16t1.856-6.88 4.96-4.992 6.912-1.856 6.88 1.856T25.6 9.12 27.424 16z"/></svg>
