<svg xmlns="http://www.w3.org/2000/svg" width="20" height="20" fill="none"><path fill="#162B73" d="M6.409.763a21.651 21.651 0 0 0-4.93.637c.433.656 1.167 1.158 2.015 1.498 1.016.407 2.18.573 3.049.528.895-.045 2.052-.409 2.954-.902.452-.247.84-.527 1.103-.795.139-.143.237-.279.3-.4C9.573.95 8.163.775 6.748.762a18.828 18.828 0 0 0-.34 0ZM11.2 2.218l-.048.051c-.339.347-.783.66-1.284.933-1.002.548-2.225.942-3.287.997-.998.05-2.24-.128-3.376-.583-.778-.312-1.512-.759-2.053-1.37C.453 7.89-.17 14.176.718 19.325c.843.265 1.762.465 2.708.6v-2.75h2.75v-2.75H10.9c0-.129.007-.27.021-.428.042-.453.139-1.032.273-1.676.232-1.115.576-2.42.943-3.53a80.945 80.945 0 0 0-.936-6.573Zm6.56.026c-.038 0-.082.004-.122.005l-2.447 3.063c.33.106.627.318.843.604l2.375-2.838c.039-.088.04-.335-.093-.528a.679.679 0 0 0-.555-.306Zm-2.986 3.77a1.374 1.374 0 0 0-.184.29 2.055 2.055 0 0 0-.163 1.057v.01l.151 1.048a8.022 8.022 0 0 0-1.601.309 32.555 32.555 0 0 0-1.027 3.751c-.13.626-.223 1.186-.26 1.588-.01.127-.007.2-.008.29.1-.052.217-.118.358-.21.415-.271.967-.697 1.552-1.184a48.764 48.764 0 0 0 3.094-2.828 4.218 4.218 0 0 0-.6-1.01c-.287-.365-.622-.651-.71-.706l-.017-.001-.162-1.131c-.02-.211.01-.475.095-.657a.596.596 0 0 1 .148-.212.95.95 0 0 0-.666-.404Zm.424 6.435v1.977h4.727v-1.977h-4.727ZM6.95 15.2v1.977h4.727v-1.977H6.949Zm5.5 0v1.977h4.727v-1.977h-4.727Zm5.5 0v1.977h1.977v-1.977h-1.977ZM4.2 17.95v1.977h4.727v-1.977H4.199Zm5.5 0v1.977h4.727v-1.977H9.699Zm5.5 0v1.977h4.727v-1.977h-4.727Z"/></svg>