<svg xmlns="http://www.w3.org/2000/svg" width="18" height="19" fill="none"><path fill="#162B73" d="M16 9.95c0-1.95-.68-3.604-2.038-4.963C12.604 3.629 10.95 2.95 9 2.95v-2c1.25 0 2.421.237 3.513.712a9.16 9.16 0 0 1 2.85 1.926 9.151 9.151 0 0 1 1.925 2.85A8.708 8.708 0 0 1 18 9.95h-2Zm-4 0c0-.833-.292-1.542-.875-2.125A2.893 2.893 0 0 0 9 6.95v-2c1.383 0 2.563.487 3.538 1.462C13.513 7.387 14 8.567 14 9.95h-2ZM16.95 19c-2.15 0-4.246-.48-6.287-1.438a19.045 19.045 0 0 1-5.425-3.8 19.045 19.045 0 0 1-3.8-5.425C.479 6.296 0 4.2 0 2.05c0-.3.1-.55.3-.75.2-.2.45-.3.75-.3H5.1a.96.96 0 0 1 .625.225.88.88 0 0 1 .325.575l.65 3.5c.033.233.03.446-.012.637a1.027 1.027 0 0 1-.288.513L4 8.9c.7 1.2 1.575 2.325 2.625 3.375A18.294 18.294 0 0 0 10.1 15l2.35-2.35c.15-.15.346-.263.588-.338a1.61 1.61 0 0 1 .712-.062l3.45.7c.233.05.425.162.575.337.15.175.225.38.225.613v4.05c0 .3-.1.55-.3.75-.2.2-.45.3-.75.3Z"/></svg>