<svg xmlns="http://www.w3.org/2000/svg" width="24" height="24" fill="none"><path fill="#162B73" d="M9.083 8.88v6.24c0 .448.204.788.613 1.022.408.233.807.213 1.196-.059l4.841-3.091c.37-.234.555-.564.555-.992 0-.428-.185-.758-.555-.992l-4.841-3.091c-.39-.273-.788-.292-1.196-.059-.409.234-.613.574-.613 1.021ZM12 23.666c-1.614 0-3.13-.307-4.55-.92a11.774 11.774 0 0 1-3.704-2.493 11.774 11.774 0 0 1-2.493-3.704A11.354 11.354 0 0 1 .333 12c0-1.614.307-3.13.92-4.55a11.774 11.774 0 0 1 2.493-3.704A11.79 11.79 0 0 1 7.45 1.25 11.367 11.367 0 0 1 12 .333c1.614 0 3.13.306 4.55.918a11.79 11.79 0 0 1 3.704 2.495 11.774 11.774 0 0 1 2.493 3.704c.613 1.42.92 2.936.92 4.55 0 1.614-.307 3.13-.92 4.55a11.774 11.774 0 0 1-2.493 3.704 11.774 11.774 0 0 1-3.704 2.493c-1.42.613-2.936.92-4.55.92Z"/></svg>