<svg xmlns="http://www.w3.org/2000/svg" width="51" height="51" fill="none"><path fill="#162B73" d="M2.783 4.463a4.773 4.773 0 0 1 1.511-3.174A4.813 4.813 0 0 1 7.575 0h3.614c1.219 0 2.392.46 3.281 1.29a4.773 4.773 0 0 1 1.512 3.173L18.754 45.9a4.76 4.76 0 0 1-1.284 3.584A4.803 4.803 0 0 1 13.965 51H4.8a4.82 4.82 0 0 1-3.506-1.516A4.777 4.777 0 0 1 .011 45.9L2.783 4.462ZM20.367 51a7.893 7.893 0 0 0 1.582-5.31L20.28 20.763 32.32 9.97a1.604 1.604 0 0 1 2.673 1.186V21.92L48.327 9.97A1.604 1.604 0 0 1 51 11.156V46.22a4.771 4.771 0 0 1-1.406 3.38c-.901.897-2.122 1.401-3.396 1.401H20.364h.003Zm24.23-3.188V34.425c0-.676-.27-1.325-.75-1.803a2.567 2.567 0 0 0-1.81-.747H31.151c-.679 0-1.33.269-1.81.747a2.545 2.545 0 0 0-.75 1.803v13.388h16.005Z"/></svg>