<svg xmlns="http://www.w3.org/2000/svg" width="51" height="44" fill="none"><path fill="#162B73" d="M10.61.077c-.107.02-.547.107-.977.185C3.968 1.347-.213 6.738.14 12.502.47 18 4.329 22.454 9.702 23.559c1.709.342 4.268.234 5.636-.254.234-.078.45-.127.469-.108.058.05-.206 1.427-.47 2.433-1.132 4.473-2.803 8.478-5.704 13.636-1.582 2.823-1.904 3.438-1.904 3.712 0 .449.566.146 3.076-1.632 2.032-1.445 2.726-2.002 3.898-3.135 2.637-2.57 4.65-5.656 6.203-9.553 1.943-4.875 2.96-10.247 2.969-15.756.01-2.11-.02-2.51-.205-3.38C22.459 3.906 17.594-.04 11.938.018c-.625.01-1.22.03-1.328.059ZM36.788.067c-.107.03-.547.117-.977.195-2.266.44-4.297 1.544-6.007 3.253-2.276 2.286-3.438 5.06-3.448 8.264-.01 1.582.107 2.412.527 3.74 1.554 4.875 6.086 8.216 11.175 8.245 1.28 0 2.325-.127 3.321-.41.762-.215.742-.332.352 1.416-1.006 4.493-2.862 9.084-5.724 14.164-2.51 4.454-2.608 4.776-1.075 3.829.967-.596 3.77-2.618 4.64-3.35.957-.792 2.637-2.521 3.419-3.507 2.774-3.498 4.923-8.381 6.095-13.822.82-3.81 1.23-8.86.938-11.477-.586-5.129-4.288-9.212-9.377-10.355-.713-.156-3.429-.293-3.859-.185Z"/></svg>
