<svg xmlns="http://www.w3.org/2000/svg" width="51" height="51" fill="none"><path fill="#162B73" d="M13.724.904a3.787 3.787 0 0 0-2.413 2.062l-.274.586v44.454l.274.586a3.723 3.723 0 0 0 2.462 2.062c.723.195 22.041.195 22.764 0A3.723 3.723 0 0 0 39 48.592l.274-.586V3.552l-.274-.586A3.723 3.723 0 0 0 36.537.904C35.843.72 14.39.72 13.724.904Zm22.5 1.632c.206.049.528.234.724.41.537.47.713.948.713 1.945v.86H12.649v-.86c0-.958.176-1.446.665-1.906.605-.566.117-.547 11.792-.557 7.21 0 10.865.04 11.119.108Zm1.437 20.752v15.876H12.649V7.41h25.012v15.877Zm0 20.878c0 3.029-.02 3.39-.186 3.742-.225.498-.772.987-1.25 1.114-.518.146-21.622.146-22.14 0-.478-.127-1.025-.616-1.25-1.114-.166-.352-.186-.713-.186-3.742v-3.341h25.012v3.341Z"/><path fill="#162B73" d="M21.276 3.523c-.293.332-.332.537-.185.899.195.478.518.547 2.413.547 1.651 0 2.071-.069 2.296-.372.215-.273.166-.84-.088-1.074-.215-.205-.313-.215-2.228-.215-1.954 0-2.012.01-2.208.215ZM27.11 3.503c-.44.44-.323 1.095.243 1.32.753.322 1.7.097 1.886-.43.127-.352.078-.548-.205-.87-.176-.186-.293-.215-.967-.215-.626 0-.792.03-.958.195ZM24.305 41.753c-.645.176-1.143.488-1.631 1.026-.596.664-.792 1.182-.792 2.15 0 .742.03.898.322 1.484.352.714.85 1.212 1.573 1.564.645.322 2.11.322 2.756 0a3.261 3.261 0 0 0 1.573-1.564c.293-.586.322-.742.322-1.485 0-.967-.195-1.485-.791-2.15-.499-.546-.987-.85-1.671-1.025-.674-.176-.997-.176-1.66 0Zm1.485 1.7c1.642.742 1.153 3.136-.635 3.136-1.368 0-2.16-1.622-1.3-2.648.294-.342.919-.674 1.3-.674.137 0 .42.088.635.186ZM2.733 4.861C.73 6.952-.217 10.108.29 12.99c.274 1.553.928 3.087 1.847 4.28.908 1.172 1.465 1.445 1.964.937.41-.4.332-.81-.254-1.485-.997-1.133-1.69-2.628-1.945-4.152-.361-2.228.362-4.631 1.935-6.458.41-.479.508-.655.508-.948 0-.469-.323-.781-.801-.781-.293 0-.43.078-.811.478ZM46.18 4.607c-.38.4-.293.82.303 1.505 1.563 1.827 2.286 4.23 1.925 6.458-.254 1.524-.948 3.019-1.944 4.152-.587.674-.665 1.085-.254 1.485.498.508 1.055.235 1.963-.938.919-1.192 1.573-2.726 1.847-4.28.508-2.881-.44-6.037-2.443-8.128-.39-.41-.517-.478-.82-.478-.254 0-.43.068-.577.224Z"/><path fill="#162B73" d="M6.348 6.405c-.45.46-1.114 1.475-1.397 2.15-.518 1.23-.665 2.92-.372 4.327.274 1.31 1.397 3.195 2.12 3.576.362.176.684.127.968-.176.332-.361.254-.752-.284-1.426-.898-1.114-1.28-2.169-1.28-3.537 0-1.397.41-2.53 1.31-3.615.527-.635.605-1.094.224-1.446-.37-.351-.85-.293-1.29.147ZM42.692 6.483c-.4.39-.332.791.245 1.514.908 1.124 1.27 2.13 1.27 3.537 0 1.378-.4 2.482-1.32 3.595-.527.636-.576 1.046-.195 1.417.42.42.782.342 1.427-.332 1.925-2.022 2.325-5.432.947-8.05-.234-.43-.664-1.046-.957-1.359-.635-.664-1.006-.742-1.417-.322Z"/></svg>
