<svg xmlns="http://www.w3.org/2000/svg" width="30" height="32"><path fill="#162B73" d="M4.576 24q0-.48-.352-.8t-.8-.352q-.48 0-.8.352t-.352.8q0 .48.352.8t.8.352q.48 0 .8-.352t.352-.8zm2.848-9.152v11.424q0 .48-.32.8t-.832.352h-5.12q-.48 0-.8-.352t-.352-.8V14.848q0-.448.352-.8t.8-.32h5.12q.48 0 .832.32t.32.8zm21.152 0q0 1.536-.992 2.656.288.8.288 1.376.032 1.344-.768 2.432.288.992 0 2.112-.288.992-.992 1.664.16 1.984-.864 3.232-1.152 1.376-3.52 1.408h-2.304q-1.184 0-2.56-.288t-2.176-.512-2.144-.704q-2.208-.768-2.816-.8-.48 0-.8-.352t-.352-.8V14.848q0-.448.32-.8t.768-.352q.416-.032 1.344-1.056t1.824-2.144q1.216-1.568 1.792-2.144.32-.32.544-.864t.32-.864.256-1.088q.128-.704.224-1.088t.352-.928.608-.896q.32-.352.8-.352.8 0 1.472.192t1.056.48.704.704.448.8.224.896.064.8.032.704q0 .672-.192 1.376t-.32 1.056-.512.992q-.032.128-.16.32t-.192.416-.16.416h4.96q1.376 0 2.4 1.024t1.024 2.4z"/></svg>
