<svg xmlns="http://www.w3.org/2000/svg" width="15" height="15" fill="none"><path fill="#162B73" d="M7.5 0a7.5 7.5 0 1 1-3.772 13.984L.003 15l1.014-3.726A7.5 7.5 0 0 1 7.5 0ZM4.944 3.975l-.15.006a.72.72 0 0 0-.279.075.97.97 0 0 0-.22.171c-.09.085-.141.158-.196.23-.278.36-.427.803-.425 1.258.002.367.098.725.248 1.06.307.676.811 1.392 1.477 2.056.16.16.318.32.488.47a7.086 7.086 0 0 0 2.88 1.534l.426.065c.139.008.277-.002.417-.01.218-.01.431-.07.625-.173.098-.05.194-.105.287-.165 0 0 .032-.02.094-.067.1-.075.163-.128.247-.216a.86.86 0 0 0 .158-.226c.058-.123.116-.356.14-.55.019-.149.013-.23.011-.28-.003-.08-.07-.164-.143-.199l-.436-.196s-.652-.284-1.052-.465a.373.373 0 0 0-.132-.031.361.361 0 0 0-.283.095c-.004-.001-.054.042-.596.698a.262.262 0 0 1-.276.098 1.072 1.072 0 0 1-.143-.05l-.19-.08a4.519 4.519 0 0 1-1.18-.753c-.095-.082-.183-.172-.273-.26a4.723 4.723 0 0 1-.765-.95l-.044-.072a.692.692 0 0 1-.077-.153c-.028-.11.046-.199.046-.199s.182-.2.267-.308c.083-.104.152-.207.197-.28.089-.142.117-.288.07-.401a62.443 62.443 0 0 0-.651-1.531c-.044-.1-.175-.173-.295-.187a3.329 3.329 0 0 0-.121-.012 2.538 2.538 0 0 0-.302.003l.15-.006.001.001Z"/></svg>
